# xmcd
#
# Track frame offsets: 
#        150
#        17205
#        33841
#        50503
#        70922
#        94243
#        113312
#        130212
#        147183
#        158455
#        182836
#        205952
#
# Disc length: 3018 seconds
#
# Revision: 0
# Processed by: cddbd v1.5.2PL0 Copyright (c) Steve Scherf et al.
# Submitted via: ExactAudioCopyFreeDBPlugin 1.0
#
DISCID=9c0bc80c
DTITLE=Powderfinger - Dream Days at the Hotel Existence
DYEAR=2007
DGENRE=Rock
TTITLE0=Head Up In The Clouds
TTITLE1=I Don't Remember
TTITLE2=Lost And Running
TTITLE3=Wishing On The Same Moon
TTITLE4=Who Really Cares (featuring the sound of insanity)
TTITLE5=Nobody Sees
TTITLE6=Surviving
TTITLE7=Long Way To Go
TTITLE8=Black Tears
TTITLE9=Ballad Of A Dead Man
TTITLE10=Drifting Further Away
TTITLE11=Bonus Track: Glory Box
EXTD=
EXTT0=
EXTT1=
EXTT2=
EXTT3=
EXTT4=
EXTT5=
EXTT6=
EXTT7=
EXTT8=
EXTT9=
EXTT10=
EXTT11=
PLAYORDER=
